<?xml version="1.0" standalone="no"?><!DOCTYPE svg PUBLIC "-//W3C//DTD SVG 1.1//EN" "http://www.w3.org/Graphics/SVG/1.1/DTD/svg11.dtd"><svg t="1704641009860" class="icon" viewBox="0 0 1024 1024" version="1.1" xmlns="http://www.w3.org/2000/svg" p-id="29615" xmlns:xlink="http://www.w3.org/1999/xlink" width="200" height="200"><path d="M400.53 14.72c-44.29 0-109.62 4.66-169.32 26.87C203.1 52 179.05 65.45 159.73 81.43c-22.68 18.76-39 41.08-48.46 66.35-8 21.4-6.21 47.37 5.39 77.19 9.19 23.62 24.58 49.44 44.48 74.67A454 454 0 0 0 233.56 372a433.34 433.34 0 0 0 96.13 58.46c16.31 7.14 35.13 13.65 58.13 20.09a342.25 342.25 0 0 0 36.36 74.64c14.68 22.91 28.48 39.47 42.17 50.61 14.56 11.85 29.51 17.85 44.46 17.85 16.28 0 38.89-7.78 43-28.06 2.51-12.29-1.31-51.32-2.68-76.18 28.54 7.79 55 16.82 76.6 28.37 38.4 20.56 54.25 44.67 53 80.63a266.1 266.1 0 0 1-22.3 97.17 320.2 320.2 0 0 1-45.28 73.64 359.06 359.06 0 0 1-59.82 58.38c-26.67-9.05-60.63-14.81-90.54-14.81a170.87 170.87 0 0 0-39.38 4.12c-14.65 3.5-35.49 14.37-51.57 46.26a174 174 0 0 0-16.74 57.07c-6.05 52.64 16.65 72.31 30.73 79.34a131.22 131.22 0 0 0 59.2 14c29.72 0 61.16-9.9 90.93-28.64A235.3 235.3 0 0 0 588.22 940c24.33-13.6 57.18-35 104.62-66q14.89-9.72 31.71-20.67c74.89-48.74 125.67-105.19 155.23-172.57 30.09-68.59 34-140.21 34-195 0-21.55-2.67-47.52-7.53-73.12a495 495 0 0 0-30.07-99.65 472.37 472.37 0 0 0-64.67-109.8 458.71 458.71 0 0 0-32.85-37.2c18-8.57 34.38-19.64 45.46-31.54a46.75 46.75 0 0 0-34.22-78.57c-1.11 0-2.25 0-3.36 0.12-5.13 0.37-10.62 0.55-16.33 0.55A340.94 340.94 0 0 1 700 48.69a263.44 263.44 0 0 0-54.44-5.81 240.81 240.81 0 0 0-51.77 5.56 645.46 645.46 0 0 0-41.71-14c-42.94-12.74-96.77-19.75-151.57-19.75z" fill="#4A4A4A" p-id="29616"></path><path d="M572.73 886.83c-4-21-94-42-140-31-32.62 7.8-51 97-29 108 81.58 40.79 172.49-58.69 169-77z" fill="#CC2C0D" p-id="29617"></path><path d="M415.8 392.23s1.21 47.64 42.07 111.39S516.65 552 516.65 552s-5.39-46.29-5.92-73.22-94.93-86.55-94.93-86.55z" fill="#CC2C0E" p-id="29618"></path><path d="M553.73 106.83s54-37 139-19c44.79 9.48 78.63 9.43 97.64 8.07a6.75 6.75 0 0 1 5.43 11.35c-18.68 20.06-65.09 39.17-88.07 35.58-17.42-2.72-8 2-57-20-55.92-25.11-97-16-97-16z" fill="#C52B0B" p-id="29619"></path><path d="M540.73 72.83c292.55 86.77 333 336 333 413 0 127-24.55 238.69-171 334-126 82-167.38 111.42-183 97-13-12 49-51 49-51s146-96 152-266c5.71-161.9-247.19-150.08-375-206s-215-184-197-232c43.21-115.23 274-124 392-89z" fill="#FF6700" p-id="29620"></path><path d="M323.73 232.83c-63.3 1.13-106 15-136 36 34 51.71 83.06 92.22 158 125 127.81 55.92 380.71 44.1 375 206-6 170-163 273-163 273s56.16-23.3 132-98c67-66 86-118 87-177 1.81-107-14-147-110-242-88.43-87.51-231-125-343-123z" fill="#FFC440" p-id="29621"></path><path d="M721.74 258.83a15 15 0 0 1-13.27-8c0-0.09-8.51-15.48-30.12-36.19-22-21.07-55.69-37.11-56-37.27a15 15 0 0 1 12.81-27.13c1.56 0.74 38.5 18.32 64 42.73s35.46 43 35.88 43.81a15 15 0 0 1-13.24 22z" fill="#FFFFFF" p-id="29622"></path><path d="M746.73 282.83m-15 0a15 15 0 1 0 30 0 15 15 0 1 0-30 0Z" fill="#FFFFFF" p-id="29623"></path><path d="M701.73 478.83c-56.28-58.73-95-67-166-75-133.65-15.06-166-92-270-131-64.49-24.18-71-9-77-3 34 51.17 82.62 91.46 157 124 127.81 55.92 380.71 44.1 375 206-3.35 95-53.84 169-97.75 215.92 51.75-36.92 103.2-113.84 108.75-129.92 30-87 16-159-30-207z" fill="#F9A992" p-id="29624"></path><path d="M701.73 478.83c-53.34-55.66-90.91-66-155.14-73.74-3.54-0.43-10.86-1.26-10.86-1.26s3.51 9.46 13.57 22.63c10.81 14.15 15 25.09 15 25.09s7.13 2 10.65 3c82.39 24.2 148.69 61.46 145.73 145.25-3.35 95-53.84 169-97.75 215.92 51.75-36.92 103.2-113.84 108.75-129.92 30.05-86.97 16.05-158.97-29.95-206.97z" fill="#F161DC" p-id="29625"></path><path d="M375.35 337.29l-8.78-6.29C337 309.79 307 288.32 265.73 272.83c-64.49-24.18-71-9-77-3 34 51.17 82.62 91.46 157 124 8 3.49 16.47 6.73 25.34 9.75 3.23 1.1 9.84 3.23 9.84 3.23z" fill="#FFFA3E" p-id="29626"></path></svg>